<svg width="40" height="28" viewBox="0 0 40 28" fill="none" xmlns="http://www.w3.org/2000/svg">
<path d="M6 12C3.75 12 2 10.25 2 8C2 5.8125 3.75 4 6 4C8.1875 4 10 5.8125 10 8C10 10.25 8.1875 12 6 12ZM34 12C31.75 12 30 10.25 30 8C30 5.8125 31.75 4 34 4C36.1875 4 38 5.8125 38 8C38 10.25 36.1875 12 34 12ZM36 14C38.1875 14 40 15.8125 40 18V20C40 21.125 39.0625 22 38 22H33.875C33.4375 19.0625 31.6875 16.5625 29.125 15.1875C29.875 14.5 30.875 14 32 14H36ZM20 14C16.125 14 13 10.875 13 7C13 3.1875 16.125 0 20 0C23.8125 0 27 3.1875 27 7C27 10.875 23.8125 14 20 14ZM24.75 16C28.75 16 32 19.25 32 23.25V25C32 26.6875 30.625 28 29 28H11C9.3125 28 8 26.6875 8 25V23.25C8 19.25 11.1875 16 15.1875 16H15.6875C17 16.625 18.4375 17 20 17C21.5 17 22.9375 16.625 24.25 16H24.75ZM10.8125 15.1875C8.25 16.5625 6.5 19.0625 6.0625 22H2C0.875 22 0 21.125 0 20V18C0 15.8125 1.75 14 4 14H8C9.0625 14 10.0625 14.5 10.8125 15.1875Z" fill="#2E7D32"/>
</svg>
